<svg width="48" height="48" viewBox="0 0 48 48" fill="none" xmlns="http://www.w3.org/2000/svg">
<circle cx="24" cy="24" r="24" fill="url(#paint0_linear_4_149)"/>
<path d="M20.6554 24.4363C20.6554 22.3477 22.3481 20.6542 24.4367 20.6542C26.5254 20.6542 28.219 22.3477 28.219 24.4363C28.219 26.5248 26.5254 28.2184 24.4367 28.2184C22.3481 28.2184 20.6554 26.5248 20.6554 24.4363ZM18.6107 24.4363C18.6107 27.6538 21.219 30.262 24.4367 30.262C27.6544 30.262 30.2627 27.6538 30.2627 24.4363C30.2627 21.2187 27.6544 18.6105 24.4367 18.6105C21.219 18.6105 18.6107 21.2187 18.6107 24.4363ZM29.1318 18.3795C29.1315 19.1314 29.7409 19.7412 30.4928 19.7415C31.2448 19.7418 31.8546 19.1325 31.8549 18.3806C31.8552 17.6287 31.2458 17.0189 30.4939 17.0186H30.4934C29.7418 17.019 29.1325 17.628 29.1318 18.3795ZM19.853 33.6712C18.7468 33.6208 18.1456 33.4366 17.746 33.2809C17.2163 33.0747 16.8383 32.8291 16.4409 32.4323C16.0436 32.0355 15.7976 31.6579 15.5923 31.1282C15.4365 30.7288 15.2523 30.1274 15.202 29.0213C15.147 27.8254 15.136 27.4661 15.136 24.4364C15.136 21.4066 15.1479 21.0483 15.202 19.8514C15.2524 18.7453 15.438 18.1451 15.5923 17.7445C15.7985 17.2148 16.0441 16.8369 16.4409 16.4395C16.8378 16.0422 17.2154 15.7962 17.746 15.5909C18.1454 15.4352 18.7468 15.2509 19.853 15.2006C21.0489 15.1456 21.4082 15.1346 24.4367 15.1346C27.4653 15.1346 27.8249 15.1465 29.0218 15.2006C30.128 15.251 30.7283 15.4366 31.1288 15.5909C31.6585 15.7962 32.0365 16.0427 32.4339 16.4395C32.8312 16.8364 33.0763 17.2148 33.2825 17.7445C33.4383 18.1439 33.6226 18.7453 33.6728 19.8514C33.7278 21.0483 33.7388 21.4066 33.7388 24.4364C33.7388 27.4661 33.7278 27.8244 33.6728 29.0213C33.6225 30.1274 33.4373 30.7286 33.2825 31.1282C33.0763 31.6579 32.8307 32.0358 32.4339 32.4323C32.037 32.8287 31.6585 33.0747 31.1288 33.2809C30.7294 33.4367 30.128 33.6209 29.0218 33.6712C27.8259 33.7262 27.4666 33.7372 24.4367 33.7372C21.4068 33.7372 21.0486 33.7262 19.853 33.6712ZM19.759 13.1595C18.5512 13.2145 17.7259 13.406 17.0051 13.6865C16.2586 13.9761 15.6267 14.3647 14.9952 14.9951C14.3637 15.6256 13.9762 16.2585 13.6865 17.0049C13.4061 17.7261 13.2145 18.551 13.1595 19.7588C13.1036 20.9685 13.0908 21.3552 13.0908 24.4363C13.0908 27.5173 13.1036 27.9041 13.1595 29.1138C13.2145 30.3217 13.4061 31.1464 13.6865 31.8676C13.9762 32.6136 14.3638 33.2472 14.9952 33.8774C15.6266 34.5076 16.2586 34.8956 17.0051 35.186C17.7272 35.4665 18.5512 35.658 19.759 35.713C20.9694 35.768 21.3555 35.7817 24.4367 35.7817C27.5179 35.7817 27.9047 35.7689 29.1144 35.713C30.3223 35.658 31.1472 35.4665 31.8684 35.186C32.6144 34.8956 33.2468 34.5079 33.8782 33.8774C34.5097 33.247 34.8965 32.6136 35.1869 31.8676C35.4674 31.1464 35.6598 30.3216 35.7139 29.1138C35.7689 27.9032 35.7817 27.5173 35.7817 24.4363C35.7817 21.3552 35.7689 20.9685 35.7139 19.7588C35.6589 18.5509 35.4674 17.7257 35.1869 17.0049C34.8965 16.2589 34.5087 15.6266 33.8782 14.9951C33.2478 14.3637 32.6144 13.9761 31.8693 13.6865C31.1472 13.406 30.3223 13.2136 29.1153 13.1595C27.9056 13.1045 27.5188 13.0908 24.4376 13.0908C21.3565 13.0908 20.9694 13.1036 19.759 13.1595Z" fill="white"/>
<defs>
<linearGradient id="paint0_linear_4_149" x1="11" y1="9" x2="35" y2="40" gradientUnits="userSpaceOnUse">
<stop stop-color="#D82D7E"/>
<stop offset="0.479167" stop-color="#DF406C"/>
<stop offset="1" stop-color="#FA8F21"/>
</linearGradient>
</defs>
</svg>
