<svg width="140" height="30" viewBox="0 0 140 30" fill="none" xmlns="http://www.w3.org/2000/svg">
<g clip-path="url(#clip0_3_900)">
<path d="M12.1309 15.7144C11.8592 15.7144 11.6389 15.9357 11.6389 16.2088V16.463L11.6395 16.4753C11.6907 17.5044 12.4634 18.5349 13.7781 18.6365L13.7969 18.638H14.0565C14.3283 18.638 14.5486 18.4166 14.5486 18.1436C14.5486 17.8705 14.3283 17.6491 14.0565 17.6491H13.8359C13.0802 17.5825 12.6568 17.0118 12.623 16.4373V16.2088C12.623 15.9357 12.4027 15.7144 12.1309 15.7144Z" fill="white"/>
<path fill-rule="evenodd" clip-rule="evenodd" d="M13.4804 7.72506C10.937 7.83756 8.97077 9.93535 8.8431 12.4902C8.77906 13.7716 8.72913 14.9173 8.72913 15.9824C8.72913 16.9758 8.77257 17.9704 8.83038 19.1136C8.95893 21.6557 10.9219 23.7346 13.4527 23.8486C13.836 23.8659 14.2074 23.8762 14.5485 23.8762C14.9003 23.8762 15.2844 23.8652 15.6804 23.847C18.1947 23.7311 20.1504 21.6767 20.2743 19.1508C20.3283 18.0511 20.368 17.0683 20.368 15.9824C20.368 14.7694 20.3238 13.6505 20.2653 12.4418C20.1427 9.90808 18.1856 7.84219 15.6635 7.72717C15.2735 7.70938 14.8954 7.69875 14.5485 7.69875C14.2157 7.69875 13.8539 7.70855 13.4804 7.72506ZM10.2575 12.7832C10.3539 10.8359 11.8255 9.24537 13.721 9.15761C14.0104 9.14421 14.291 9.13621 14.5486 9.13621C14.8189 9.13621 15.1147 9.14502 15.4195 9.15965C17.2951 9.24968 18.757 10.8103 18.8478 12.7376C18.8564 12.9213 18.8645 13.0779 18.8719 13.2198C18.8968 13.7009 18.9131 14.0161 18.9131 14.6696C18.9131 15.3143 18.8953 15.6812 18.8685 16.233C18.8642 16.3216 18.8596 16.4152 18.8549 16.5153C18.7641 18.4351 17.3037 19.9848 15.4353 20.0756C15.1249 20.0907 14.8236 20.0998 14.5486 20.0998C14.2835 20.0998 13.994 20.0913 13.6955 20.0772C11.8117 19.9881 10.3433 18.4153 10.2475 16.4799C10.2413 16.3536 10.2353 16.2379 10.2297 16.1295L10.2297 16.1287C10.2023 15.596 10.184 15.2405 10.184 14.6696C10.184 14.1213 10.2009 13.8201 10.2265 13.3629C10.2358 13.1967 10.2463 13.0099 10.2575 12.7832Z" fill="white"/>
<path fill-rule="evenodd" clip-rule="evenodd" d="M8.30529 1.82715H20.7919C23.5324 1.82715 24.2407 2.11288 24.9251 2.48066C25.664 2.87769 26.233 3.4494 26.6281 4.1918C26.9942 4.87949 27.2785 5.59118 27.2785 8.34486V8.77855C27.2785 8.97796 27.1194 9.14031 26.9212 9.14876C26.8601 9.15135 26.7984 9.15432 26.7362 9.15761C25.0777 9.24537 23.7901 10.8359 23.7057 12.7832C23.6959 13.0084 23.6868 13.1946 23.6787 13.3599L23.6786 13.362L23.6786 13.3629C23.6562 13.8201 23.6414 14.1213 23.6414 14.6696C23.6414 15.2405 23.6574 15.5961 23.6814 16.1288C23.6863 16.2374 23.6915 16.3533 23.697 16.4799C23.7808 18.4153 25.0656 19.9881 26.714 20.0772C26.7837 20.081 26.8528 20.0844 26.9212 20.0873C27.1194 20.0957 27.2785 20.2581 27.2785 20.4575V20.8912C27.2785 23.6448 26.9942 24.3565 26.6281 25.0442C26.233 25.7866 25.664 26.3583 24.9251 26.7554C24.2407 27.1231 23.5324 27.4089 20.7919 27.4089H8.30529C5.56471 27.4089 4.85642 27.1231 4.172 26.7554C3.43314 26.3583 2.86415 25.7866 2.469 25.0442C2.10297 24.3565 1.8186 23.6448 1.8186 20.8912V20.4575C1.8186 20.2581 1.97771 20.0957 2.17599 20.0873C2.25394 20.084 2.33295 20.08 2.41264 20.0756C4.04747 19.9848 5.32531 18.4351 5.40478 16.5153C5.40886 16.4167 5.41278 16.3246 5.41649 16.2373L5.41668 16.2329C5.44014 15.681 5.45574 15.3143 5.45574 14.6696C5.45574 14.0161 5.44144 13.7006 5.41963 13.2195C5.41319 13.0776 5.40611 12.9213 5.39854 12.7376C5.31914 10.8103 4.03998 9.24968 2.39879 9.15965C2.3238 9.15554 2.24942 9.15188 2.17599 9.14876C1.97772 9.14031 1.8186 8.97796 1.8186 8.77855V8.34486C1.8186 5.59118 2.10297 4.87949 2.469 4.1918C2.86415 3.44941 3.43314 2.8777 4.172 2.48066C4.85642 2.11288 5.56471 1.82715 8.30529 1.82715ZM13.4251 6.45934C10.187 6.60256 7.74187 9.26506 7.58388 12.4266C7.51984 13.708 7.46833 14.8821 7.46833 15.9823C7.46833 17.0106 7.51331 18.0331 7.5712 19.1778C7.73067 22.3314 10.1768 24.9692 13.3963 25.1142C13.7925 25.132 14.1836 25.143 14.5486 25.143C14.925 25.143 15.3291 25.1313 15.7382 25.1125C18.9343 24.9652 21.3794 22.3582 21.5337 19.2131C21.588 18.1075 21.6289 17.1 21.6289 15.9823C21.6289 14.7383 21.5836 13.5951 21.5248 12.3802C21.3723 9.23008 18.9283 6.60781 15.7208 6.46152C15.3177 6.44314 14.9197 6.43181 14.5486 6.43181C14.1923 6.43181 13.8113 6.44226 13.4251 6.45934Z" fill="white"/>
<path d="M113.196 7.24702C112.649 7.78993 111.829 8.02497 110.75 8.02497C109.674 8.02497 108.832 7.78993 108.301 7.24702C107.753 6.72398 107.504 5.91955 107.504 4.88339V4.75098H109.255V4.88339C109.255 5.43954 109.377 5.79706 109.582 5.99238L109.588 5.999C109.796 6.21418 110.18 6.32011 110.747 6.32011C111.314 6.32011 111.679 6.21418 111.887 5.999L111.893 5.99238C112.104 5.79706 112.242 5.43623 112.242 4.88339V4.75098H113.993V4.88339C113.993 5.92286 113.721 6.72729 113.196 7.24702Z" fill="white"/>
<path fill-rule="evenodd" clip-rule="evenodd" d="M101.757 17.7046C101.927 17.4695 102.042 17.1749 102.122 16.7843L102.148 16.675H104.184L104.161 16.8273C104.059 17.496 103.87 18.0687 103.569 18.5322C103.274 19.0122 102.913 19.3896 102.464 19.6743C102.019 19.959 101.514 20.1543 100.95 20.2834C100.364 20.4125 99.7399 20.4555 99.058 20.4555C98.2095 20.4555 97.4604 20.3695 96.7912 20.1741C96.1189 20.002 95.5266 19.6743 95.0592 19.234C94.5917 18.7904 94.2331 18.1978 93.9802 17.4629C93.7273 16.7446 93.6024 15.8408 93.6024 14.7716C93.6024 13.6791 93.7241 12.7522 93.977 12.014C94.2267 11.2791 94.5853 10.6667 95.0528 10.2032L95.056 10.1999C95.5202 9.76292 96.0933 9.43519 96.7656 9.23988H96.7688C97.4347 9.06773 98.1839 8.9618 99.0131 8.9618C100.592 8.9618 101.853 9.37229 102.785 10.2032C103.7 11.044 104.158 12.3119 104.158 13.9903V15.5429H95.6547C95.6675 16.152 95.7635 16.6585 95.9108 17.0359C96.0677 17.4397 96.3014 17.7609 96.5895 17.9992C96.8777 18.2409 97.2266 18.3998 97.6396 18.4825C98.0623 18.5653 98.5265 18.6083 99.0516 18.6083C99.4582 18.6083 99.8199 18.5885 100.179 18.5256H100.185C100.515 18.4825 100.809 18.3832 101.085 18.2409L101.088 18.2376H101.091C101.354 18.1217 101.562 17.9462 101.757 17.7046ZM96.6696 11.4082C96.3814 11.6267 96.1477 11.9279 95.9716 12.3318C95.8083 12.7059 95.7091 13.1759 95.6771 13.7784H102.074C102.064 13.2157 101.984 12.7655 101.84 12.3914C101.683 11.9842 101.488 11.6863 101.222 11.4479C100.953 11.2261 100.643 11.0672 100.271 10.9646C99.8904 10.8818 99.4678 10.8189 99.0099 10.8189C98.5265 10.8189 98.1039 10.862 97.7037 10.9447C97.3131 11.0242 96.9609 11.1864 96.6696 11.4082Z" fill="white"/>
<path d="M118.591 16.5625C118.629 16.1222 118.671 15.5561 118.671 14.8411V9.28621H127.245V20.1443H125.186V11.14H120.669V15.096C120.669 16.8008 120.422 18.0786 119.955 18.893C119.475 19.7471 118.69 20.1443 117.63 20.1443H117.176V18.1846H117.304C117.56 18.1846 117.762 18.1415 117.919 18.0522L117.925 18.0489L117.928 18.0455C118.075 17.9793 118.223 17.8171 118.338 17.5788C118.45 17.3437 118.53 17.0226 118.591 16.5625Z" fill="white"/>
<path d="M90.2952 16.5327C90.2151 16.9631 90.0775 17.304 89.9078 17.5622C89.7125 17.8436 89.5012 18.0423 89.2515 18.2011C88.9793 18.36 88.688 18.4627 88.3518 18.5223C87.9932 18.5852 87.6315 18.605 87.2249 18.605C86.6774 18.605 86.1971 18.562 85.7777 18.4594C85.3455 18.3567 84.9997 18.178 84.734 17.9032L84.7308 17.8999C84.4427 17.6218 84.2282 17.2411 84.0681 16.7479C83.9112 16.2579 83.828 15.5959 83.828 14.7782C83.828 13.9407 83.908 13.2753 84.0681 12.7423C84.2282 12.2259 84.4427 11.8253 84.7308 11.5505L84.734 11.5472C84.9997 11.2725 85.3455 11.0904 85.7777 10.9911C86.1971 10.8885 86.6806 10.8256 87.2249 10.8256C87.6026 10.8256 87.9644 10.8653 88.291 10.9083C88.6047 10.9712 88.8961 11.0705 89.1682 11.2294C89.4179 11.3883 89.6325 11.5903 89.8278 11.8518C90.0006 12.11 90.1383 12.4311 90.2152 12.8383L90.2344 12.9442H92.2962L92.2674 12.7886C92.1425 12.0802 91.9536 11.4678 91.6559 10.9812C91.3613 10.5011 90.9995 10.1072 90.5769 9.79934L90.5737 9.79603C90.1511 9.51134 89.6421 9.29285 89.0786 9.16375C88.4959 9.03464 87.8908 8.97174 87.2281 8.97174C86.3764 8.97174 85.6305 9.07768 84.9645 9.24982H84.9613C84.289 9.44513 83.6967 9.77286 83.2293 10.2098L83.2261 10.2131C82.7586 10.6766 82.4 11.289 82.1503 12.0239C81.8974 12.7622 81.7757 13.6891 81.7757 14.7815C81.7757 15.8508 81.9006 16.7545 82.1503 17.4729C82.4 18.2078 82.7618 18.8003 83.2293 19.2439C83.6967 19.6842 84.289 20.0119 84.9613 20.1841C85.6305 20.3794 86.3796 20.4655 87.2281 20.4655C87.9132 20.4655 88.5375 20.4026 89.1202 20.2735C89.6869 20.1444 90.1927 19.9259 90.6378 19.618C91.086 19.3101 91.4446 18.9162 91.7423 18.413C92.0401 17.9264 92.229 17.314 92.3346 16.5824L92.357 16.4301H90.3208L90.2952 16.5327Z" fill="white"/>
<path d="M137.24 16.5327L137.259 16.4235V16.4301H139.302L139.28 16.5824C139.174 17.314 138.985 17.9264 138.687 18.413C138.39 18.9162 138.031 19.3101 137.583 19.618C137.138 19.9259 136.632 20.1444 136.065 20.2735C135.483 20.4026 134.858 20.4655 134.173 20.4655C133.325 20.4655 132.576 20.3794 131.906 20.1841C131.234 20.0119 130.642 19.6842 130.174 19.2439C129.707 18.8003 129.348 18.2078 129.095 17.4729C128.846 16.7545 128.721 15.8508 128.721 14.7815C128.721 13.6891 128.842 12.7622 129.095 12.0239C129.345 11.289 129.704 10.6766 130.171 10.2131L130.174 10.2098C130.642 9.77286 131.234 9.44513 131.906 9.24982H131.91C132.576 9.07768 133.321 8.97174 134.173 8.97174C134.836 8.97174 135.441 9.03464 136.024 9.16375C136.59 9.29285 137.096 9.51134 137.519 9.79603L137.522 9.79934C137.945 10.1072 138.306 10.5011 138.601 10.9812C138.899 11.4678 139.088 12.0802 139.212 12.7886L139.241 12.9442H137.179L137.16 12.8383C137.083 12.4311 136.946 12.11 136.773 11.8518C136.578 11.5903 136.363 11.3883 136.113 11.2294C135.841 11.0705 135.55 10.9712 135.236 10.9083C134.91 10.8653 134.548 10.8256 134.17 10.8256C133.626 10.8256 133.142 10.8885 132.723 10.9911C132.291 11.0904 131.945 11.2725 131.679 11.5472L131.676 11.5505C131.388 11.8253 131.173 12.2259 131.013 12.7423C130.853 13.2753 130.773 13.9407 130.773 14.7782C130.773 15.5959 130.856 16.2579 131.013 16.7479C131.173 17.2411 131.388 17.6218 131.676 17.8999L131.679 17.9032C131.945 18.178 132.291 18.3567 132.723 18.4594C133.142 18.562 133.622 18.605 134.17 18.605C134.577 18.605 134.938 18.5852 135.297 18.5223C135.633 18.4627 135.924 18.36 136.197 18.2011C136.446 18.0423 136.658 17.8436 136.853 17.5622C137.023 17.304 137.16 16.9631 137.24 16.5327Z" fill="white"/>
<path fill-rule="evenodd" clip-rule="evenodd" d="M78.7246 9.8821C77.8761 9.26637 76.6979 8.96843 75.2284 8.96843C74.5241 8.96843 73.8805 9.03133 73.3363 9.16374C72.7696 9.29285 72.2829 9.51133 71.8795 9.79934L71.8763 9.80265C71.4697 10.1138 71.1496 10.5078 70.8966 10.9911C70.6405 11.4777 70.474 12.0868 70.3908 12.7986L70.3748 12.9475H72.3726L72.3886 12.835C72.4494 12.4212 72.5455 12.1001 72.6991 11.8452L72.7055 11.8385C72.84 11.5803 73.0097 11.385 73.237 11.2294C73.4643 11.0738 73.7333 10.9712 74.0662 10.9116C74.3896 10.8686 74.793 10.8289 75.2348 10.8289C76.2497 10.8289 76.9317 11.0176 77.3511 11.3321C77.7577 11.6366 77.9754 12.1597 77.9754 12.9409V13.6891C77.7372 13.6861 77.5191 13.6702 77.3121 13.6551L77.2326 13.6493H77.2198C76.9605 13.6493 76.6979 13.6295 76.4322 13.6063H76.4194C76.2817 13.6063 76.1473 13.603 76.0032 13.5964H75.9904C75.8431 13.5898 75.6862 13.5864 75.5198 13.5864C75.3661 13.5864 75.2092 13.5831 75.0395 13.5765H75.0107C74.8314 13.5699 74.6393 13.5666 74.4344 13.5666C73.5444 13.5666 72.8112 13.6725 72.2413 13.8711H72.2381C71.6746 14.0863 71.2264 14.3478 70.903 14.6855C70.5605 15.0198 70.3428 15.3972 70.2147 15.7978C70.0866 16.195 70.045 16.5923 70.045 16.9631C70.045 17.5854 70.1283 18.1382 70.3428 18.5885C70.5349 19.0287 70.8134 19.4061 71.1816 19.6743C71.5274 19.9623 71.9532 20.1609 72.4366 20.29C72.9232 20.4224 73.4483 20.4655 74.0246 20.4655C74.8986 20.4655 75.699 20.3132 76.4162 19.9656C77.1109 19.6279 77.6328 19.1016 77.9754 18.3965V20.1477H80.034V12.9343C80.0308 11.5472 79.589 10.5045 78.7246 9.8821ZM77.9722 16.2977C77.9338 16.7909 77.8121 17.1882 77.6264 17.4795C77.4311 17.7807 77.1814 18.0191 76.8772 18.1747C76.5603 18.3369 76.2049 18.4594 75.8079 18.5223C75.4045 18.5852 75.0235 18.605 74.6169 18.605C73.7204 18.605 73.0737 18.4792 72.6735 18.2409C72.2989 18.0191 72.1036 17.6086 72.1036 16.9366C72.1036 16.7115 72.1228 16.4963 72.1965 16.3076L72.2029 16.2944C72.2541 16.1123 72.379 15.9236 72.5871 15.7713L72.5935 15.7647C72.776 15.6157 73.0769 15.4932 73.4835 15.3873C73.8837 15.3045 74.4472 15.2416 75.1356 15.2416C75.3309 15.2416 75.5326 15.245 75.7471 15.2516H75.7759C76 15.2582 76.2369 15.2615 76.4834 15.2615C76.9413 15.2814 77.4471 15.3012 77.9754 15.3211V16.2977H77.9722Z" fill="white"/>
<path fill-rule="evenodd" clip-rule="evenodd" d="M54.7189 14.659C55.4585 14.755 56.0604 14.9669 56.499 15.3343C56.944 15.7481 57.1778 16.3605 57.1745 17.1948C57.1745 17.6185 57.0881 17.9926 56.96 18.3435C56.8288 18.7043 56.6111 19.0188 56.3101 19.2869C56.0124 19.5518 55.6506 19.7736 55.2248 19.9259H55.2216C54.7733 20.0814 54.2675 20.1443 53.6848 20.1443H47.6978V9.28621H53.2366C53.9025 9.28621 54.4724 9.37228 54.9366 9.52456H54.943C55.4041 9.6967 55.769 9.89533 56.07 10.1635C56.3677 10.4316 56.5887 10.7229 56.7199 11.0639C56.848 11.3949 56.912 11.7293 56.912 12.0868C56.912 12.8714 56.7007 13.5037 56.3005 13.9175L56.2973 13.9208C55.9067 14.3048 55.3817 14.5431 54.7189 14.6226V14.659ZM53.0957 11.14H49.7596V13.7751H53.4671C54.0242 13.7751 54.386 13.6328 54.5748 13.3845C54.7637 13.1097 54.8758 12.7986 54.8758 12.4046C54.8758 12.2093 54.8406 12.0338 54.799 11.865C54.7669 11.7359 54.6869 11.63 54.5684 11.5075C54.4468 11.4016 54.2675 11.3221 54.0242 11.2394C53.7905 11.1798 53.4735 11.14 53.0957 11.14ZM53.2782 18.2905C53.8609 18.2905 54.3091 18.1879 54.6517 17.9893C54.9686 17.8072 55.1383 17.4762 55.1383 16.9597C55.1383 16.5426 55.0231 16.2149 54.799 15.9434C54.5909 15.6952 54.1522 15.5462 53.4415 15.5462H49.7596V18.2905H53.2782Z" fill="white"/>
<path d="M60.8468 16.5923V9.28621H58.785V20.1443H59.9952L66.328 12.9177V20.1443H68.3866V9.28621H67.1764L60.8468 16.5923Z" fill="white"/>
<path fill-rule="evenodd" clip-rule="evenodd" d="M40.8336 8.96843C42.3031 8.96843 43.4813 9.26637 44.3297 9.8821C45.191 10.5045 45.6328 11.5472 45.6328 12.9343V20.1444H43.5742V18.3932C43.2316 19.0983 42.7129 19.6246 42.015 19.9623C41.2978 20.3099 40.4974 20.4622 39.6234 20.4622C39.0471 20.4622 38.522 20.4191 38.0354 20.2867C37.552 20.1576 37.1261 19.959 36.7804 19.671C36.4122 19.4028 36.1336 19.0254 35.9415 18.5852C35.727 18.1349 35.6438 17.5821 35.6438 16.9597C35.6438 16.589 35.6854 16.1917 35.8135 15.7945C35.9415 15.3939 36.1593 15.0165 36.5018 14.6822C36.8284 14.3478 37.2766 14.0863 37.8337 13.8711H37.8369C38.4068 13.6725 39.1399 13.5666 40.03 13.5666C40.2349 13.5666 40.427 13.5699 40.6063 13.5765H40.6351C40.8048 13.5831 40.9617 13.5864 41.1153 13.5864C41.2818 13.5864 41.4387 13.5898 41.586 13.5964H41.5988C41.7429 13.603 41.8773 13.6063 42.015 13.6063H42.0278C42.2967 13.6295 42.5593 13.6493 42.8186 13.6493H42.8314L42.9109 13.6551C43.1178 13.6702 43.336 13.6861 43.5742 13.6891V12.9343C43.5742 12.153 43.3565 11.63 42.9499 11.3254C42.5304 11.0109 41.8485 10.8223 40.8336 10.8223C40.3918 10.8223 39.9884 10.862 39.665 10.905C39.3288 10.9646 39.0631 11.0672 38.8358 11.2228C38.6085 11.3784 38.4388 11.5737 38.3043 11.8319L38.3011 11.8352V11.8419C38.1507 12.0968 38.0514 12.4179 37.9906 12.8317L37.9746 12.9442H35.9768L35.9928 12.7953C36.076 12.0835 36.2425 11.4744 36.4986 10.9878C36.7516 10.5045 37.0717 10.1105 37.4783 9.79934L37.4815 9.79603C37.8849 9.50802 38.3716 9.29285 38.9415 9.16374C39.4857 9.03133 40.1292 8.96843 40.8336 8.96843ZM43.2284 17.4795C43.4141 17.1882 43.5325 16.7909 43.5742 16.2977H43.5774V15.3211C43.0491 15.3012 42.5401 15.2814 42.0854 15.2615C41.8389 15.2615 41.602 15.2582 41.3779 15.2516H41.3491C41.1345 15.245 40.9328 15.2416 40.7375 15.2416C40.0492 15.2416 39.4857 15.3045 39.0855 15.3873C38.6789 15.4932 38.378 15.6157 38.1955 15.7647L38.1891 15.7713C37.981 15.9236 37.8561 16.1123 37.8049 16.2944L37.7985 16.3076C37.7248 16.4963 37.7056 16.7115 37.7056 16.9366C37.7056 17.6086 37.9009 18.0191 38.2755 18.2409C38.6757 18.4792 39.3224 18.605 40.2189 18.605C40.6255 18.605 41.0065 18.5852 41.4099 18.5223C41.8069 18.4594 42.1623 18.3369 42.4792 18.1747C42.7834 18.0191 43.0363 17.7807 43.2284 17.4795Z" fill="white"/>
<path d="M108.01 16.5923V9.28621H105.951V20.1443H107.158L113.491 12.9177V20.1443H115.549V9.28621H114.339L108.01 16.5923Z" fill="white"/>
</g>
<defs>
<clipPath id="clip0_3_900">
<rect width="139.302" height="29.2363" fill="white"/>
</clipPath>
</defs>
</svg>
