<svg width="48" height="48" viewBox="0 0 48 48" fill="none" xmlns="http://www.w3.org/2000/svg">
<circle cx="24" cy="24" r="24" fill="url(#paint0_linear_4_146)"/>
<path d="M35.7817 17.0104C34.9473 17.3777 34.0509 17.626 33.1085 17.7382C34.0809 17.1601 34.8083 16.2503 35.1551 15.1785C34.2416 15.7176 33.2418 16.0971 32.1991 16.3005C31.498 15.5567 30.5693 15.0636 29.5572 14.898C28.5451 14.7323 27.5063 14.9033 26.6021 15.3843C25.6978 15.8653 24.9787 16.6295 24.5563 17.5582C24.134 18.4868 24.0321 19.5281 24.2664 20.5202C22.4153 20.4279 20.6045 19.9499 18.9513 19.1172C17.2982 18.2845 15.8398 17.1158 14.6708 15.6869C14.271 16.3719 14.0412 17.1663 14.0412 18.0122C14.0407 18.7737 14.2295 19.5236 14.5907 20.1953C14.9519 20.867 15.4744 21.4397 16.1118 21.8626C15.3726 21.8393 14.6497 21.6408 14.0032 21.2838V21.3433C14.0031 22.4114 14.375 23.4467 15.0557 24.2734C15.7364 25.1001 16.684 25.6673 17.7377 25.8789C17.052 26.0633 16.333 26.0904 15.6351 25.9583C15.9324 26.8773 16.5115 27.681 17.2914 28.2568C18.0712 28.8325 19.0128 29.1516 19.9842 29.1693C18.3352 30.4555 16.2986 31.1532 14.2021 31.1501C13.8307 31.1502 13.4597 31.1287 13.0908 31.0856C15.2189 32.445 17.6961 33.1665 20.2261 33.1637C28.7904 33.1637 33.4723 26.1162 33.4723 20.0039C33.4723 19.8054 33.4673 19.6048 33.4583 19.4062C34.369 18.7519 35.1551 17.9416 35.7797 17.0134L35.7817 17.0104Z" fill="white"/>
<defs>
<linearGradient id="paint0_linear_4_146" x1="11" y1="9" x2="37.0909" y2="41.4545" gradientUnits="userSpaceOnUse">
<stop stop-color="#73CAFF"/>
<stop offset="0.479167" stop-color="#1DA1F2"/>
<stop offset="1" stop-color="#007CC8"/>
</linearGradient>
</defs>
</svg>
